<?xml version="1.0" encoding="UTF-8"?><svg id="a" xmlns="http://www.w3.org/2000/svg" viewBox="0 0 3557.29 1865.1"><defs><style>.b{fill:#4b77bb;}</style></defs><circle class="b" cx="1747.63" cy="1097.07" r="288.14"/><path class="b" d="M3542.51,692.62l-.68-.61c-18.44-16.77-46.99-15.41-63.76,3.04l-179.54,197.5c-63.62-53.71-129.71-103.86-198.13-150.36l151.67-224.71c13.95-20.66,8.5-48.71-12.16-62.66l-.76-.51c-20.66-13.95-48.72-8.5-62.66,12.16l-152.5,225.93c-70-43.73-142.29-83.78-216.72-120.09l119.79-249.04c10.81-22.46,1.35-49.43-21.11-60.24l-.84-.4c-22.46-10.8-49.43-1.35-60.24,21.11l-120.32,250.15c-22.37-9.88-44.91-19.47-67.64-28.69-53.88-21.85-108.33-41.68-163.3-59.48l83.67-267.49c7.44-23.79-5.81-49.11-29.6-56.55l-.88-.27c-23.79-7.44-49.11,5.81-56.55,29.6l-83.92,268.3c-79.26-22.36-159.52-40.56-240.6-54.58l44.77-279.5c3.94-24.61-12.82-47.76-37.43-51.7l-.91-.15c-24.61-3.94-47.76,12.82-51.7,37.43l-44.86,280.09c-81.19-10.86-163.15-17.55-245.71-20.08l4.31-284.98c.38-24.92-19.52-45.43-44.44-45.81h-.92c-24.92-.39-45.44,19.51-45.81,44.43l-4.31,285.26c-82.6,.54-164.63,5.2-245.95,14.03l-36.54-283.07c-3.19-24.72-25.82-42.18-50.54-38.98l-.92,.12c-24.72,3.19-42.18,25.82-38.98,50.54l36.53,282.99c-81.33,11.99-161.87,28.15-241.47,48.46l-76.63-274.24c-6.71-24.01-31.61-38.03-55.61-31.32l-.88,.25c-24.01,6.71-38.03,31.61-31.32,55.62l76.53,273.91c-74.41,22.05-147.93,47.78-220.4,77.17-4,1.62-7.97,3.3-11.96,4.94l-114.79-258.79c-10.11-22.78-36.77-33.06-59.56-22.96l-.84,.37c-22.79,10.11-33.07,36.77-22.96,59.56l114.5,258.13c-75.12,34.32-148.15,72.37-218.95,114.09l-149.38-236.71c-13.3-21.08-41.18-27.38-62.26-14.08l-.77,.49c-21.08,13.3-27.39,41.18-14.08,62.26l148.83,235.84c-69.3,44.52-136.33,92.66-200.94,144.38l-179.25-209.63c-16.2-18.94-44.69-21.17-63.64-4.97l-.7,.6c-18.94,16.2-21.17,44.69-4.97,63.64l178.46,208.7c-44.56,38.52-87.89,78.8-129.92,120.84l-16.63,16.63c-26.83,26.83-26.83,70.33,0,97.15,26.83,26.83,70.33,26.83,97.15,0l16.63-16.63c215.78-215.78,467.33-382.83,747.66-496.51,117.3-47.57,237.49-84.96,359.91-112.09-21.15,17.89-41.5,36.98-60.87,57.32-140.12,147.15-214.43,340.09-209.23,543.26,5.19,202.59,88.74,391.94,235.25,533.18,142.03,136.91,325.64,210.92,521.01,210.91,10.64,0,21.33-.29,32.04-.74,297.98-3.29,588.7-60.89,864.85-171.45,301.38-120.66,571.54-299.18,802.97-530.62l16.63-16.63c26.83-26.83,26.83-70.33,0-97.15l-16.63-16.63c-27.13-27.14-54.82-53.52-83.01-79.19l178.45-196.3c16.77-18.44,15.41-46.99-3.04-63.76Zm-946.44,872.74c-256.38,102.64-526.06,156.68-802.61,161.4-2.52-.14-5.07-.18-7.65-.04-1.54,.08-3.07,.12-4.61,.2-15.33,.18-30.68,.25-46.06,.13-.21,0-.4,0-.61,0-1.71,0-3.39,.13-5.08,.26-151.8-5.09-293.87-65.03-404.86-172.02-120.36-116.02-188.99-271.49-193.25-437.77-4.26-166.43,56.6-324.46,171.37-444.99,114.98-120.74,270.09-189.48,436.76-193.55,166.75-4.2,324.96,56.99,445.7,171.97,124.12,118.19,192.91,277.7,193.73,449.14,.18,37.83,30.9,68.37,68.69,68.37h.34c37.94-.18,68.55-31.08,68.37-69.03-.99-209.17-84.94-403.78-236.37-547.98-11.29-10.75-22.87-21.06-34.68-31.03,122.47,27.13,242.7,64.53,360.04,112.12,266.33,108,506.7,264.19,715.09,464.56-210.84,202.74-454.32,360.18-724.31,468.28Z"/></svg>