<?xml version="1.0" encoding="UTF-8"?><svg id="a" xmlns="http://www.w3.org/2000/svg" viewBox="0 0 500 500"><defs><style>.b{fill:#048438;}.c{fill:#08a045;}.d{fill:#0cad4d;}.e{fill:#017f34;}.f{fill:#097c37;}</style></defs><path class="d" d="M471.2,247.6c0,33.13-7.05,64.63-19.72,93.08-.39,.89-.84,1.82-1.28,2.71-24.4,48.36-67,87.5-117.63,106.98-60,23.02-130.2,17.9-186.74-14,19.57,17.01,42.5,30.17,67.05,38.55-.32-.04-.63-.08-.95-.12-57.47-7.58-108.61-41.18-138.98-90.56-9.69-15.75-17.4-32.28-22.46-48.58-16.86-54.57-22.09-119.3,1.77-171.21,16.66-36.33,47.03-65.91,83.22-82.92,36.14-17.01,77.79-21.64,117.08-14.35-66.4-5.32-134.78,27.11-173.09,82.03-38.3,54.92-45.11,130.3-17.25,191.18,27.8,60.93,89.62,102.49,156.97,112.2,36.23,5.23,73.8,4.49,108.36-7.69,34.51-12.23,65.57-34.71,86.57-64.73,32.83-46.98,38.7-109.59,23.02-164.71-15.68-55.12-46.04-104.17-94.11-138.43-50.28-35.89-121.42-41.36-180.38-22.83-58.96,18.49-109.44,62.31-132.91,115.51,11.59-32.44,32.98-60.93,59.36-83.12,26.32-22.18,57.53-38.16,90.17-49.15,32.19-10.85,66.75-16.91,100.17-10.99,55.41,9.81,100.91,51.17,129.26,100.37,24.9,43.14,41.26,92.78,45.55,141.09,4.09-70.1-19.67-141.34-64.43-195.47,49.79,42.05,81.39,104.91,81.39,175.16Z"/><path class="f" d="M339.82,148.26c20.16,23.42,28.25,55.66,26.57,86.52-1.58,28.74-11.29,57.28-29.38,79.62-18.14,22.33-44.91,38.01-73.55,40.62-28.64,2.66-59.06-8.13-77.05-29.97-17.7-21.49-24.55-51.32-19.03-78.68-6.8,7.74-11.29,17.5-12.47,26.52-6.26-27.41,1.48-57.68,20.16-78.68,18.68-21,47.82-32.19,75.87-29.63-9.42-4.49-19.87-6.9-30.32-8.13,20.16-4.54,42,1.13,58.52,13.51,16.56,12.37,29.18,30.76,33.23,51.37,3.06,15.58,.2,32.24-7.94,45.85-8.13,13.61-21.45,24.06-36.58,28.74-9.32,2.86-19.37,3.6-28.84,1.28-17.01-4.19-30.91-18.88-34.26-36.04-3.3-17.21,4.14-36.04,18.34-46.24,5.32-3.85,11.59-6.56,18.09-7.25,6.56-.74,13.36,.59,18.88,4.19,6.61,4.34,10.94,11.68,12.82,19.42,2.12,8.63,1.33,18.19-3.4,25.63-4.78,7.49-13.85,12.42-22.58,11.09-8.78-1.38-16.22-9.81-15.33-18.63,.79-7.94,7.69-14.25,15.43-16.22-.39,3.01-1.77,6.16-1.68,9.51,.05,3.3,1.97,6.85,5.18,7.69,5.13,1.38,9.42-4.63,9.81-9.91,.74-10.35-7.44-20.56-17.7-22.04-8.73-1.28-17.65,3.4-22.83,10.45-9.66,13.21-5.97,33.77,6.95,43.78,12.87,10.01,32.64,9.02,45.4-1.18,12.77-10.16,18.19-28.25,14.49-44.12-4.24-18.29-20.16-33.33-38.65-36.53-18.59-3.2-38.26,5.32-50.04,20.02-11.78,14.69-15.97,34.76-12.82,53.34,3.11,18.54,13.11,37.37,30.86,49.45,26.33,17.94,61.77,12.72,89.82-2.46,28.05-15.18,48.41-43.83,54.13-75.43-7,18.04-19.62,33.92-34.02,43.04,13.95-27.95,17.55-60.98,9.86-91.3-7.64-30.27-26.47-57.63-53.09-71.53,15.53,15.18,27.41,34.02,32.54,55.46-17.3-26.47-50.09-39.78-81.74-40.47-40.57-.89-81.19,17.4-107.42,48.41-26.23,30.96-37.61,74-30.81,115.7-9.02-38.95-4.83-81.1,12.97-116.89,17.8-35.84,49.3-64.88,86.96-78.38,37.61-13.56,81-11.04,116.2,7.99,35.15,18.98,61.28,54.48,67.54,94.6-7.39-22.28-21.99-42.15-39.09-54.08Z"/><path class="c" d="M412.44,244c.1,50.58-21.1,101.41-59.06,134.88-37.91,33.52-92.39,48.26-141.44,35.74-49-12.52-90.51-52.95-101.75-102.24-11.24-49.35,9.81-105.15,51.47-130.99-17.25,19.52-26.72,45.26-28.4,71.24-1.68,25.98,4.14,52.11,14.69,75.92,10.55,23.86,26.18,45.95,47.47,61.03,21.3,15.04,48.61,22.53,77.15,16.27-41.56-4.83-80.26-29.92-98.65-65.47,25.04,30.96,65.76,48.56,105.5,45.55,39.73-3.01,77.35-26.52,98.89-61.03-23.37,21.3-53.24,35.35-84.55,39.93,32.34-11.09,65.02-38.26,83.17-73.31,18.14-35,21.4-77.45,8.87-114.82-12.52-37.42-40.72-69.31-76.26-86.32,29.53,7,57.04,29.48,75.33,57.78,18.29,28.3,27.51,62.12,27.56,95.84Z"/><path class="e" d="M424.42,294.58c-1.33,45.16-24.6,89.18-61.13,115.7-36.53,26.57-85.58,35.1-123.84,23.56,41.21-.3,82.23-14.15,115.21-38.9,32.93-24.75,57.68-60.24,69.76-100.37Z"/><path class="b" d="M90.57,324.31c13.06,27.75,31.5,52.65,51.81,77.74-52.06-29.14-85.78-88.44-84.25-148.09,1.53-59.7,38.26-117.13,94.41-147.01-19.72,16.56-37.96,35.15-52.16,56.64-14.25,21.45-24.35,45.95-27.02,71.53-3.2,30.52,4.19,61.43,17.21,89.18Z"/></svg>